<svg xmlns="http://www.w3.org/2000/svg" viewBox="0 0 27.11 19.5"><defs><style>.cls-1{fill:#fff;}.cls-2{fill:#0077cc;}</style></defs><title>icn_mickey</title><g id="レイヤー_2" data-name="レイヤー 2"><g id="レイヤー_1-2" data-name="レイヤー 1"><path class="cls-1" d="M8.13,19.5H19l.58-.8a7.32,7.32,0,0,0,.52-7.91l-.5-.93,1,.2a4.13,4.13,0,0,0,.87.08,4.57,4.57,0,0,0,0-9.15h0A4.57,4.57,0,0,0,17,5.59a4.82,4.82,0,0,0,.19,1.23l.26,1-.94-.4a7.49,7.49,0,0,0-5.82,0l-.95.41.27-1a4.55,4.55,0,0,0,.19-1.22A4.58,4.58,0,0,0,5.58,1.07h0a4.58,4.58,0,0,0-3.2,7.83,4.54,4.54,0,0,0,3.22,1.33,6.13,6.13,0,0,0,.88-.1l1-.21L7,10.85a7.34,7.34,0,0,0-.89,3.49A7.42,7.42,0,0,0,7.55,18.7l.58.8"/><path class="cls-2" d="M8.13,19.5H7l-.78-1a8.38,8.38,0,0,1-1.11-4.15,8.17,8.17,0,0,1,.61-3.13H5.58a5.58,5.58,0,0,1-4-9.51A5.54,5.54,0,0,1,5.55.07h0a5.58,5.58,0,0,1,5.58,5.55,4.47,4.47,0,0,1,0,.58,8.42,8.42,0,0,1,2.43-.37A8.28,8.28,0,0,1,16,6.18a4.72,4.72,0,0,1,0-.58A5.57,5.57,0,0,1,21.51,0h0a5.57,5.57,0,0,1,0,11.15h-.13a8.19,8.19,0,0,1,.65,3.13A8.38,8.38,0,0,1,21,18.5l-.59,1H19l.58-.8a7.32,7.32,0,0,0,.52-7.91l-.5-.93,1,.2a4.13,4.13,0,0,0,.87.08,4.57,4.57,0,0,0,0-9.15h0A4.57,4.57,0,0,0,17,5.59a4.82,4.82,0,0,0,.19,1.23l.26,1-.94-.4a7.49,7.49,0,0,0-5.82,0l-.95.41.27-1a4.55,4.55,0,0,0,.19-1.22A4.58,4.58,0,0,0,5.58,1.07h0a4.58,4.58,0,0,0-3.2,7.83,4.54,4.54,0,0,0,3.22,1.33,6.13,6.13,0,0,0,.88-.1l1-.21L7,10.85a7.34,7.34,0,0,0-.89,3.49A7.42,7.42,0,0,0,7.55,18.7l.58.8"/></g></g></svg>